<?xml version="1.0" encoding="UTF-8"?>
<svg id="Layer_2" data-name="Layer 2" xmlns="http://www.w3.org/2000/svg" viewBox="0 0 48.71 32.64">
  <g id="Layer_1-2" data-name="Layer 1">
    <g>
      <path d="M46.58,18.45H2.13c-1.18,0-2.13-.95-2.13-2.13s.95-2.13,2.13-2.13h44.45c1.18,0,2.13.95,2.13,2.13s-.95,2.13-2.13,2.13Z"/>
      <path d="M46.58,4.26H2.13c-1.18,0-2.13-.95-2.13-2.13S.95,0,2.13,0h44.45c1.18,0,2.13.95,2.13,2.13s-.95,2.13-2.13,2.13Z"/>
      <path d="M46.58,32.64H2.13c-1.18,0-2.13-.95-2.13-2.13s.95-2.13,2.13-2.13h44.45c1.18,0,2.13.95,2.13,2.13s-.95,2.13-2.13,2.13Z"/>
    </g>
  </g>
</svg>