<?xml version="1.0" encoding="UTF-8"?>
<svg id="Layer_2" data-name="Layer 2" xmlns="http://www.w3.org/2000/svg" viewBox="0 0 44.64 34.96">
  <g id="Layer_1-2" data-name="Layer 1">
    <g>
      <path d="M24.06,6.58H2.13c-1.18,0-2.13-.95-2.13-2.13s.95-2.13,2.13-2.13h21.93c1.18,0,2.13.95,2.13,2.13s-.95,2.13-2.13,2.13Z"/>
      <path d="M42.51,20.77H2.13c-1.18,0-2.13-.95-2.13-2.13s.95-2.13,2.13-2.13h40.38c1.18,0,2.13.95,2.13,2.13s-.95,2.13-2.13,2.13Z"/>
      <path d="M42.51,34.96H2.13c-1.18,0-2.13-.95-2.13-2.13s.95-2.13,2.13-2.13h40.38c1.18,0,2.13.95,2.13,2.13s-.95,2.13-2.13,2.13Z"/>
      <path d="M37.87,8.9c-.54,0-1.09-.21-1.51-.62l-4.64-4.64c-.83-.83-.83-2.18,0-3.01.83-.83,2.18-.83,3.01,0l3.13,3.13,3.13-3.13c.83-.83,2.18-.83,3.01,0,.83.83.83,2.18,0,3.01l-4.64,4.64c-.42.42-.96.62-1.5.62Z"/>
    </g>
  </g>
</svg>